 <svg  version="1.0" xmlns="http://www.w3.org/2000/svg"  width="40.000000pt" height="40.000000pt" viewBox="0 0 40.000000 40.000000"  preserveAspectRatio="xMidYMid meet">  <g transform="translate(0.000000,40.000000) scale(0.100000,-0.100000)" fill="#ce4b4b" stroke="none"> <path d="M131 334 c-39 -32 -91 -123 -91 -158 0 -15 7 -40 15 -56 9 -18 12 -40 8 -60 l-6 -32 31 16 c19 10 42 14 56 10 14 -3 44 3 75 16 43 19 57 21 91 12 43 -11 45 -8 30 32 -7 18 -5 33 5 53 20 38 19 71 -4 113 -42 80 -147 107 -210 54z m146 -15 c18 -11 40 -34 48 -49 16 -30 20 -80 8 -80 -5 0 -32 18 -62 41 -29 22 -55 38 -58 35 -3 -2 4 -9 15 -15 25 -13 45 -70 37 -104 -11 -43 -50 -71 -103 -73 -26 -2 -56 -6 -66 -10 -16 -6 -18 -4 -13 10 4 9 0 30 -8 46 -16 32 -20 30 62 30 18 0 35 4 38 10 4 6 13 5 24 -2 24 -15 51 -4 51 20 0 28 -25 46 -47 34 -11 -7 -24 -7 -36 0 -13 6 -23 6 -33 -3 -11 -9 -17 -9 -29 1 -8 6 -19 9 -25 5 -20 -12 -10 16 15 40 13 14 21 25 17 25 -4 0 9 14 28 30 43 36 88 39 137 9z m43 -166 c0 -32 -20 -57 -28 -34 -3 9 -7 10 -11 2 -4 -6 -7 13 -7 43 1 53 1 53 23 37 15 -11 22 -27 23 -48z m-215 27 c0 -8 -8 -16 -17 -18 -13 -2 -18 3 -18 18 0 15 5 20 18 18 9 -2 17 -10 17 -18z m65 0 c0 -21 -24 -28 -35 -10 -8 14 3 30 21 30 8 0 14 -9 14 -20z m65 0 c0 -8 -8 -16 -17 -18 -13 -2 -18 3 -18 18 0 15 5 20 18 18 9 -2 17 -10 17 -18z"/> <path d="M190 300 c8 -5 20 -10 25 -10 6 0 3 5 -5 10 -8 5 -19 10 -25 10 -5 0 -3 -5 5 -10z"/> <path d="M148 283 c7 -3 16 -2 19 1 4 3 -2 6 -13 5 -11 0 -14 -3 -6 -6z"/> </g> </svg> 